<mxfile host="app.diagrams.net" modified="2023-09-05T17:05:33.206Z" agent="Mozilla/5.0 (Macintosh; Intel Mac OS X 10_15_7) AppleWebKit/537.36 (KHTML, like Gecko) Chrome/116.0.0.0 Safari/537.36" etag="bEBU0H9ahPC-6OprwMiU" version="21.6.8" type="github">
  <diagram name="第 1 页" id="hHg-nTNARlZoBrUzskbt">
    <mxGraphModel dx="1251" dy="825" grid="0" gridSize="10" guides="1" tooltips="1" connect="1" arrows="1" fold="1" page="0" pageScale="1" pageWidth="1169" pageHeight="827" math="0" shadow="0">
      <root>
        <mxCell id="0" />
        <mxCell id="1" parent="0" />
        <mxCell id="m-1ki_FiEctxStzq9Qwo-46" style="edgeStyle=orthogonalEdgeStyle;rounded=0;orthogonalLoop=1;jettySize=auto;html=1;entryX=0.488;entryY=-0.007;entryDx=0;entryDy=0;entryPerimeter=0;" edge="1" parent="1" source="m-1ki_FiEctxStzq9Qwo-1" target="m-1ki_FiEctxStzq9Qwo-18">
          <mxGeometry relative="1" as="geometry" />
        </mxCell>
        <mxCell id="m-1ki_FiEctxStzq9Qwo-1" value="&lt;font style=&quot;font-size: 17px;&quot;&gt;场景&lt;/font&gt;" style="rounded=0;whiteSpace=wrap;html=1;" vertex="1" parent="1">
          <mxGeometry x="454.5" y="120" width="121" height="42" as="geometry" />
        </mxCell>
        <mxCell id="m-1ki_FiEctxStzq9Qwo-27" value="" style="group" vertex="1" connectable="0" parent="1">
          <mxGeometry x="269" y="209" width="504" height="167" as="geometry" />
        </mxCell>
        <mxCell id="m-1ki_FiEctxStzq9Qwo-18" value="" style="rounded=0;whiteSpace=wrap;html=1;" vertex="1" parent="m-1ki_FiEctxStzq9Qwo-27">
          <mxGeometry width="504" height="167" as="geometry" />
        </mxCell>
        <mxCell id="m-1ki_FiEctxStzq9Qwo-21" style="edgeStyle=orthogonalEdgeStyle;rounded=0;orthogonalLoop=1;jettySize=auto;html=1;entryX=0.5;entryY=0;entryDx=0;entryDy=0;" edge="1" parent="m-1ki_FiEctxStzq9Qwo-27">
          <mxGeometry relative="1" as="geometry">
            <mxPoint x="68.51111111111118" y="68" as="sourcePoint" />
            <mxPoint x="68.5" y="101" as="targetPoint" />
          </mxGeometry>
        </mxCell>
        <mxCell id="m-1ki_FiEctxStzq9Qwo-12" value="&lt;font style=&quot;font-size: 17px;&quot;&gt;因子&lt;/font&gt;" style="rounded=0;whiteSpace=wrap;html=1;" vertex="1" parent="m-1ki_FiEctxStzq9Qwo-27">
          <mxGeometry x="27" y="26" width="121" height="42" as="geometry" />
        </mxCell>
        <mxCell id="m-1ki_FiEctxStzq9Qwo-13" value="&lt;font style=&quot;font-size: 17px;&quot;&gt;因子&lt;/font&gt;" style="rounded=0;whiteSpace=wrap;html=1;" vertex="1" parent="m-1ki_FiEctxStzq9Qwo-27">
          <mxGeometry x="347" y="26" width="121" height="42" as="geometry" />
        </mxCell>
        <mxCell id="m-1ki_FiEctxStzq9Qwo-14" value="&lt;font style=&quot;font-size: 17px;&quot;&gt;因子&lt;/font&gt;" style="rounded=0;whiteSpace=wrap;html=1;" vertex="1" parent="m-1ki_FiEctxStzq9Qwo-27">
          <mxGeometry x="188.5" y="26" width="121" height="42" as="geometry" />
        </mxCell>
        <mxCell id="m-1ki_FiEctxStzq9Qwo-19" style="edgeStyle=orthogonalEdgeStyle;rounded=0;orthogonalLoop=1;jettySize=auto;html=1;" edge="1" parent="m-1ki_FiEctxStzq9Qwo-27">
          <mxGeometry relative="1" as="geometry">
            <mxPoint x="101.00111111111119" y="100" as="sourcePoint" />
            <mxPoint x="101.49000000000001" y="68" as="targetPoint" />
          </mxGeometry>
        </mxCell>
        <mxCell id="m-1ki_FiEctxStzq9Qwo-15" value="&lt;font style=&quot;font-size: 17px;&quot;&gt;因子&lt;/font&gt;" style="rounded=0;whiteSpace=wrap;html=1;" vertex="1" parent="m-1ki_FiEctxStzq9Qwo-27">
          <mxGeometry x="27" y="101" width="121" height="42" as="geometry" />
        </mxCell>
        <mxCell id="m-1ki_FiEctxStzq9Qwo-16" value="&lt;font style=&quot;font-size: 17px;&quot;&gt;因子&lt;/font&gt;" style="rounded=0;whiteSpace=wrap;html=1;" vertex="1" parent="m-1ki_FiEctxStzq9Qwo-27">
          <mxGeometry x="187.5" y="101" width="121" height="42" as="geometry" />
        </mxCell>
        <mxCell id="m-1ki_FiEctxStzq9Qwo-17" value="&lt;font style=&quot;font-size: 17px;&quot;&gt;因子&lt;/font&gt;" style="rounded=0;whiteSpace=wrap;html=1;" vertex="1" parent="m-1ki_FiEctxStzq9Qwo-27">
          <mxGeometry x="347" y="101" width="121" height="42" as="geometry" />
        </mxCell>
        <mxCell id="m-1ki_FiEctxStzq9Qwo-22" style="edgeStyle=orthogonalEdgeStyle;rounded=0;orthogonalLoop=1;jettySize=auto;html=1;entryX=0.5;entryY=0;entryDx=0;entryDy=0;" edge="1" parent="m-1ki_FiEctxStzq9Qwo-27">
          <mxGeometry relative="1" as="geometry">
            <mxPoint x="234.01111111111118" y="68" as="sourcePoint" />
            <mxPoint x="234" y="101" as="targetPoint" />
          </mxGeometry>
        </mxCell>
        <mxCell id="m-1ki_FiEctxStzq9Qwo-24" style="edgeStyle=orthogonalEdgeStyle;rounded=0;orthogonalLoop=1;jettySize=auto;html=1;" edge="1" parent="m-1ki_FiEctxStzq9Qwo-27">
          <mxGeometry relative="1" as="geometry">
            <mxPoint x="264.0011111111112" y="100" as="sourcePoint" />
            <mxPoint x="264.49" y="68" as="targetPoint" />
          </mxGeometry>
        </mxCell>
        <mxCell id="m-1ki_FiEctxStzq9Qwo-25" style="edgeStyle=orthogonalEdgeStyle;rounded=0;orthogonalLoop=1;jettySize=auto;html=1;" edge="1" parent="m-1ki_FiEctxStzq9Qwo-27">
          <mxGeometry relative="1" as="geometry">
            <mxPoint x="420.0011111111112" y="101" as="sourcePoint" />
            <mxPoint x="420.49" y="69" as="targetPoint" />
          </mxGeometry>
        </mxCell>
        <mxCell id="m-1ki_FiEctxStzq9Qwo-26" style="edgeStyle=orthogonalEdgeStyle;rounded=0;orthogonalLoop=1;jettySize=auto;html=1;entryX=0.5;entryY=0;entryDx=0;entryDy=0;" edge="1" parent="m-1ki_FiEctxStzq9Qwo-27">
          <mxGeometry relative="1" as="geometry">
            <mxPoint x="391.0111111111112" y="68" as="sourcePoint" />
            <mxPoint x="391" y="101" as="targetPoint" />
          </mxGeometry>
        </mxCell>
        <mxCell id="m-1ki_FiEctxStzq9Qwo-28" value="" style="group" vertex="1" connectable="0" parent="1">
          <mxGeometry x="268" y="418" width="504" height="167" as="geometry" />
        </mxCell>
        <mxCell id="m-1ki_FiEctxStzq9Qwo-29" value="" style="rounded=0;whiteSpace=wrap;html=1;" vertex="1" parent="m-1ki_FiEctxStzq9Qwo-28">
          <mxGeometry width="504" height="167" as="geometry" />
        </mxCell>
        <mxCell id="m-1ki_FiEctxStzq9Qwo-30" style="edgeStyle=orthogonalEdgeStyle;rounded=0;orthogonalLoop=1;jettySize=auto;html=1;entryX=0.5;entryY=0;entryDx=0;entryDy=0;" edge="1" parent="m-1ki_FiEctxStzq9Qwo-28">
          <mxGeometry relative="1" as="geometry">
            <mxPoint x="68.51111111111118" y="68" as="sourcePoint" />
            <mxPoint x="68.5" y="101" as="targetPoint" />
          </mxGeometry>
        </mxCell>
        <mxCell id="m-1ki_FiEctxStzq9Qwo-31" value="&lt;font style=&quot;font-size: 17px;&quot;&gt;规则&lt;/font&gt;" style="rounded=0;whiteSpace=wrap;html=1;" vertex="1" parent="m-1ki_FiEctxStzq9Qwo-28">
          <mxGeometry x="27" y="26" width="121" height="42" as="geometry" />
        </mxCell>
        <mxCell id="m-1ki_FiEctxStzq9Qwo-32" value="&lt;font style=&quot;font-size: 17px;&quot;&gt;规则&lt;/font&gt;" style="rounded=0;whiteSpace=wrap;html=1;" vertex="1" parent="m-1ki_FiEctxStzq9Qwo-28">
          <mxGeometry x="347" y="26" width="121" height="42" as="geometry" />
        </mxCell>
        <mxCell id="m-1ki_FiEctxStzq9Qwo-33" value="&lt;font style=&quot;font-size: 17px;&quot;&gt;规则&lt;/font&gt;" style="rounded=0;whiteSpace=wrap;html=1;" vertex="1" parent="m-1ki_FiEctxStzq9Qwo-28">
          <mxGeometry x="188.5" y="26" width="121" height="42" as="geometry" />
        </mxCell>
        <mxCell id="m-1ki_FiEctxStzq9Qwo-34" style="edgeStyle=orthogonalEdgeStyle;rounded=0;orthogonalLoop=1;jettySize=auto;html=1;" edge="1" parent="m-1ki_FiEctxStzq9Qwo-28">
          <mxGeometry relative="1" as="geometry">
            <mxPoint x="101.00111111111119" y="100" as="sourcePoint" />
            <mxPoint x="101.49000000000001" y="68" as="targetPoint" />
          </mxGeometry>
        </mxCell>
        <mxCell id="m-1ki_FiEctxStzq9Qwo-35" value="&lt;font style=&quot;font-size: 17px;&quot;&gt;因子&lt;/font&gt;" style="rounded=0;whiteSpace=wrap;html=1;" vertex="1" parent="m-1ki_FiEctxStzq9Qwo-28">
          <mxGeometry x="27" y="101" width="121" height="42" as="geometry" />
        </mxCell>
        <mxCell id="m-1ki_FiEctxStzq9Qwo-36" value="&lt;font style=&quot;font-size: 17px;&quot;&gt;因子&lt;/font&gt;" style="rounded=0;whiteSpace=wrap;html=1;" vertex="1" parent="m-1ki_FiEctxStzq9Qwo-28">
          <mxGeometry x="187.5" y="101" width="121" height="42" as="geometry" />
        </mxCell>
        <mxCell id="m-1ki_FiEctxStzq9Qwo-37" value="&lt;font style=&quot;font-size: 17px;&quot;&gt;因子&lt;/font&gt;" style="rounded=0;whiteSpace=wrap;html=1;" vertex="1" parent="m-1ki_FiEctxStzq9Qwo-28">
          <mxGeometry x="347" y="101" width="121" height="42" as="geometry" />
        </mxCell>
        <mxCell id="m-1ki_FiEctxStzq9Qwo-38" style="edgeStyle=orthogonalEdgeStyle;rounded=0;orthogonalLoop=1;jettySize=auto;html=1;entryX=0.5;entryY=0;entryDx=0;entryDy=0;" edge="1" parent="m-1ki_FiEctxStzq9Qwo-28">
          <mxGeometry relative="1" as="geometry">
            <mxPoint x="234.01111111111118" y="68" as="sourcePoint" />
            <mxPoint x="234" y="101" as="targetPoint" />
          </mxGeometry>
        </mxCell>
        <mxCell id="m-1ki_FiEctxStzq9Qwo-39" style="edgeStyle=orthogonalEdgeStyle;rounded=0;orthogonalLoop=1;jettySize=auto;html=1;" edge="1" parent="m-1ki_FiEctxStzq9Qwo-28">
          <mxGeometry relative="1" as="geometry">
            <mxPoint x="264.0011111111112" y="100" as="sourcePoint" />
            <mxPoint x="264.49" y="68" as="targetPoint" />
          </mxGeometry>
        </mxCell>
        <mxCell id="m-1ki_FiEctxStzq9Qwo-40" style="edgeStyle=orthogonalEdgeStyle;rounded=0;orthogonalLoop=1;jettySize=auto;html=1;" edge="1" parent="m-1ki_FiEctxStzq9Qwo-28">
          <mxGeometry relative="1" as="geometry">
            <mxPoint x="420.0011111111112" y="101" as="sourcePoint" />
            <mxPoint x="420.49" y="69" as="targetPoint" />
          </mxGeometry>
        </mxCell>
        <mxCell id="m-1ki_FiEctxStzq9Qwo-41" style="edgeStyle=orthogonalEdgeStyle;rounded=0;orthogonalLoop=1;jettySize=auto;html=1;entryX=0.5;entryY=0;entryDx=0;entryDy=0;" edge="1" parent="m-1ki_FiEctxStzq9Qwo-28">
          <mxGeometry relative="1" as="geometry">
            <mxPoint x="391.0111111111112" y="68" as="sourcePoint" />
            <mxPoint x="391" y="101" as="targetPoint" />
          </mxGeometry>
        </mxCell>
        <mxCell id="m-1ki_FiEctxStzq9Qwo-44" style="edgeStyle=orthogonalEdgeStyle;rounded=0;orthogonalLoop=1;jettySize=auto;html=1;" edge="1" parent="1">
          <mxGeometry relative="1" as="geometry">
            <mxPoint x="519.0011111111112" y="374" as="sourcePoint" />
            <mxPoint x="519" y="417" as="targetPoint" />
          </mxGeometry>
        </mxCell>
        <mxCell id="m-1ki_FiEctxStzq9Qwo-48" value="" style="html=1;shadow=0;dashed=0;align=center;verticalAlign=middle;shape=mxgraph.arrows2.uTurnArrow;dy=11;arrowHead=43;dx2=25;rotation=-180;" vertex="1" parent="1">
          <mxGeometry x="798" y="234" width="74" height="127" as="geometry" />
        </mxCell>
        <mxCell id="m-1ki_FiEctxStzq9Qwo-49" value="&lt;font style=&quot;font-size: 16px;&quot;&gt;超时熔断&lt;/font&gt;" style="text;html=1;align=center;verticalAlign=middle;resizable=0;points=[];autosize=1;strokeColor=none;fillColor=none;" vertex="1" parent="1">
          <mxGeometry x="773" y="277" width="82" height="31" as="geometry" />
        </mxCell>
        <mxCell id="m-1ki_FiEctxStzq9Qwo-50" value="&lt;font style=&quot;font-size: 16px;&quot;&gt;&amp;nbsp; &amp;nbsp; &amp;nbsp; &amp;nbsp; &amp;nbsp; 串行执行&lt;/font&gt;" style="html=1;shadow=0;dashed=0;align=center;verticalAlign=middle;shape=mxgraph.arrows2.uTurnArrow;dy=11;arrowHead=43;dx2=25;rotation=0;" vertex="1" parent="1">
          <mxGeometry x="175" y="423" width="74" height="127" as="geometry" />
        </mxCell>
      </root>
    </mxGraphModel>
  </diagram>
</mxfile>
